<?xml version="1.0" encoding="iso-8859-1"?>
<!-- Uploaded to: SVG Repo, www.svgrepo.com, Generator: SVG Repo Mixer Tools -->
<!DOCTYPE svg PUBLIC "-//W3C//DTD SVG 1.1//EN" "http://www.w3.org/Graphics/SVG/1.1/DTD/svg11.dtd">
<svg fill="#000000" height="800px" width="800px" version="1.1" id="Capa_1" xmlns="http://www.w3.org/2000/svg" xmlns:xlink="http://www.w3.org/1999/xlink" 
	 viewBox="0 0 493.512 493.512" xml:space="preserve">
<g>
	<path d="M309.444,188.938c13.642,0,26.228-1.261,37.545-3.384c-11.093-13.674-23.886-22.803-37.545-22.803
		c-5.614,0-11.042,1.858-16.308,4.629c3.772,6.333,6.641,13.441,8.602,21.211C304.33,188.68,306.77,188.938,309.444,188.938z"/>
	<path d="M309.444,337.82c28.481,0,52.487-5.362,69.304-13.06c4.45-10.8,7.003-22.311,7.003-33.675c0-0.355-0.048-0.776-0.056-1.138
		c-19.822,9.191-46.462,14.789-76.251,14.789c-6.526,0-12.828-0.379-19.015-0.897c-4.345,12.286-9.198,22.989-14.093,31.194
		C286.521,336.706,297.473,337.82,309.444,337.82z"/>
	<path d="M304.534,205.214c1.122,10.606,1.129,21.794,0.177,33.158c1.608,0.031,3.093,0.193,4.733,0.193
		c24.594,0,45.614-4.111,61.801-10.154c-3.999-9.863-8.675-19.474-13.982-28.19c-14.443,3.345-30.582,5.259-47.819,5.259
		C307.748,205.48,306.204,205.246,304.534,205.214z"/>
	<path d="M302.796,254.841c-1.72,11.203-4.216,22.197-7.156,32.625c4.548,0.298,8.964,0.726,13.803,0.726
		c31.753,0,57.705-6.736,74.538-15.864c-1.478-8.885-3.868-18.546-7.034-28.358c-18.644,6.985-41.898,11.138-67.504,11.138
		C307.174,255.108,305.034,254.906,302.796,254.841z"/>
	<path d="M136.571,364.015c7.327,4.766,15.371,7.739,23.723,9.467c-2.286-3.208-3.917-6.923-3.917-11.163
		c0-10.84,8.787-19.629,19.636-19.629c10.84,0,19.627,8.789,19.627,19.629c0,4.369-1.704,8.207-4.119,11.469
		c27.357-4.685,53.956-21.309,69.005-44.45c16.809-25.872,31.259-78.351,28.134-118.633c-3.497,5.38-9.273,9.151-16.172,9.151
		c-10.847,0-19.635-8.788-19.635-19.636c0-10.838,8.788-19.627,19.635-19.627c4.04,0,7.585,1.518,10.703,3.611
		c-3.538-9.039-8.748-16.382-16.024-21.115c-6.584-4.281-14.427-6.17-23.037-6.17c-42.892,0-104.894,46.944-126.201,79.731
		C92.331,276.029,97.187,338.426,136.571,364.015z M233.201,270.317c10.84,0,19.63,8.789,19.63,19.629
		c0,10.847-8.79,19.636-19.63,19.636c-10.847,0-19.636-8.789-19.636-19.636C213.564,279.106,222.354,270.317,233.201,270.317z
		 M176.014,199.762c10.84,0,19.627,8.788,19.627,19.628c0,10.848-8.788,19.635-19.627,19.635c-10.849,0-19.636-8.787-19.636-19.635
		C156.377,208.549,165.165,199.762,176.014,199.762z M117.12,294.25c0-10.84,8.79-19.627,19.638-19.627
		c10.839,0,19.628,8.788,19.628,19.627c0,10.849-8.79,19.636-19.628,19.636C125.91,313.887,117.12,305.099,117.12,294.25z"/>
	<path d="M493.341,33.602c0-12.092-9.804-21.898-21.888-21.898H22.059c-12.084,0-21.891,9.806-21.891,21.898L0,443.368
		c0,21.194,17.246,38.44,38.44,38.44h416.63c21.196,0,38.442-17.246,38.442-38.44L493.341,33.602z M380.614,414.304v-45.08h45.08
		L380.614,414.304z M460.426,336.14h-96.354c-8.514,0-15.267,6.519-16.187,14.782c-11.956,2.157-24.813,3.441-38.441,3.441
		c-15.669,0-30.443-1.566-43.837-4.371c-1.63,1.883-3.488,3.58-5.251,5.365c13.273,13.514,30.339,22.446,49.087,22.446
		c13.893,0,26.881-4.887,38.086-12.908v83.827H38.44c-2.957,0-5.355-2.399-5.355-5.355V114.723h427.341V336.14z"/>
</g>
</svg>