<?xml version="1.0" encoding="UTF-8"?>
<svg version="1.1" xmlns="http://www.w3.org/2000/svg" width="92" height="96">
<path d="M0 0 C30.36 0 60.72 0 92 0 C92 31.68 92 63.36 92 96 C61.64 96 31.28 96 0 96 C0 64.32 0 32.64 0 0 Z " fill="#FCFDFD" transform="translate(0,0)"/>
<path d="M0 0 C1.22244667 0.00333092 1.22244667 0.00333092 2.46958923 0.00672913 C3.39046829 0.00680466 4.31134735 0.00688019 5.26013184 0.00695801 C6.2611644 0.01211929 7.26219696 0.01728058 8.29356384 0.02259827 C9.31316696 0.02401321 10.33277008 0.02542816 11.38327026 0.02688599 C14.65417867 0.03250355 17.92501972 0.04505902 21.19590759 0.05775452 C23.40749515 0.06276725 25.61908377 0.06733055 27.83067322 0.07142639 C33.26496511 0.08162972 38.69911057 0.10120166 44.13340759 0.12025452 C44.13340759 8.04025452 44.13340759 15.96025452 44.13340759 24.12025452 C46.44340759 24.45025452 48.75340759 24.78025452 51.13340759 25.12025452 C54.44490622 28.14379674 55.90137864 30.3081532 57.13340759 34.62025452 C57.13340759 38.74615127 56.41371661 40.69979099 54.13340759 44.12025452 C51.00420734 47.08898296 49.38213046 48.0580738 45.13340759 49.12025452 C45.13340759 52.42025452 45.13340759 55.72025452 45.13340759 59.12025452 C29.29340759 59.12025452 13.45340759 59.12025452 -2.86659241 59.12025452 C-2.88753807 51.58214255 -2.90757614 44.04413541 -2.91834259 36.50601959 C-2.92363224 32.99598959 -2.93070561 29.48598357 -2.94203186 25.97596741 C-2.95493446 21.95244611 -2.95982152 17.92895038 -2.96424866 13.90541077 C-2.97199059 12.0101339 -2.97199059 12.0101339 -2.97988892 10.0765686 C-2.97996445 8.91544052 -2.98003998 7.75431244 -2.9801178 6.55799866 C-2.98344872 5.01578392 -2.98344872 5.01578392 -2.98684692 3.44241333 C-2.81798084 0.18154736 -2.81798084 0.18154736 0 0 Z " fill="#3185C3" transform="translate(22.866592407226563,15.879745483398438)"/>
<path d="M0 0 C10.56 0 21.12 0 32 0 C32.99 1.98 33.98 3.96 35 6 C37.36745572 8.73737067 38.54129705 9.84709902 42 11 C42 13.97 42 16.94 42 20 C28.14 20 14.28 20 0 20 C0 13.4 0 6.8 0 0 Z " fill="#99C7FC" transform="translate(23,53)"/>
<path d="M0 0 C13.53 0 27.06 0 41 0 C41 4.62 41 9.24 41 14 C27.47 14 13.94 14 0 14 C0 9.38 0 4.76 0 0 Z " fill="#96C6FA" transform="translate(23,19)"/>
<path d="M0 0 C13.86 0 27.72 0 42 0 C42 1.32 42 2.64 42 4 C40.27473958 4.81380208 38.54947917 5.62760417 36.82421875 6.44140625 C34.19249393 8.45695204 34.19249393 8.45695204 32 15 C21.44 15 10.88 15 0 15 C0 10.05 0 5.1 0 0 Z " fill="#FAFDFC" transform="translate(23,36)"/>
<path d="M0 0 C2.75329021 1.79562405 4.52627461 3.05254922 6 6 C6.50761671 10.39934481 6.25800237 12.54225386 4.0625 16.4375 C0.48424425 19.43155073 -1.29546348 19.85679663 -5.83984375 19.5078125 C-9.57700553 18.62927537 -10.96994762 17.20879247 -13 14 C-13.74844233 10.81624146 -13.80416081 8.17643519 -13 5 C-9.11265243 0.35414559 -5.98805544 -0.97986362 0 0 Z " fill="#D4EAF0" transform="translate(71,42)"/>
<path d="M0 0 C0.33 0 0.66 0 1 0 C1 4.95 1 9.9 1 15 C12.55 15 24.1 15 36 15 C36 17.31 36 19.62 36 22 C34 19 34 19 34 17 C23.44 17 12.88 17 2 17 C2 23.6 2 30.2 2 37 C15.86 37 29.72 37 44 37 C44 34.03 44 31.06 44 28 C42.68 27.67 41.36 27.34 40 27 C39.505 26.01 39.505 26.01 39 25 C42.3 25.33 45.6 25.66 49 26 C48.01 26.33 47.02 26.66 46 27 C46 30.96 46 34.92 46 39 C30.82 39 15.64 39 0 39 C0 26.13 0 13.26 0 0 Z " fill="#2982C8" transform="translate(21,36)"/>
<path d="M0 0 C0.99 0.33 1.98 0.66 3 1 C4.39655459 1.08589303 5.79685777 1.11772715 7.19604492 1.11352539 C8.45701241 1.11341209 8.45701241 1.11341209 9.74345398 1.11329651 C10.64666885 1.10813522 11.54988373 1.10297394 12.48046875 1.09765625 C13.40845779 1.0962413 14.33644684 1.09482635 15.29255676 1.09336853 C18.25757058 1.08776937 21.22250899 1.07521704 24.1875 1.0625 C26.19726453 1.05748489 28.20703025 1.052922 30.21679688 1.04882812 C35.14456032 1.03780021 40.07226737 1.02053617 45 1 C45 6.94 45 12.88 45 19 C31.14 19 17.28 19 3 19 C3 23.95 3 28.9 3 34 C2.67 34 2.34 34 2 34 C1.67 41.92 1.34 49.84 1 58 C0.67 58 0.34 58 0 58 C0 38.86 0 19.72 0 0 Z M3 2 C3 6.62 3 11.24 3 16 C16.53 16 30.06 16 44 16 C44 11.38 44 6.76 44 2 C30.47 2 16.94 2 3 2 Z " fill="#549CD3" transform="translate(20,17)"/>
<path d="M0 0 C10.56 0 21.12 0 32 0 C32.495 1.98 32.495 1.98 33 4 C32.34 4 31.68 4 31 4 C31 3.01 31 2.02 31 1 C22.42 1 13.84 1 5 1 C5 4.96 5 8.92 5 13 C3.68 13 2.36 13 1 13 C1 14.98 1 16.96 1 19 C16.345 18.505 16.345 18.505 32 18 C32 17.01 32 16.02 32 15 C34.64 14.67 37.28 14.34 40 14 C39.67 15.32 39.34 16.64 39 18 C39.66 18.33 40.32 18.66 41 19 C41 16.36 41 13.72 41 11 C41.33 11 41.66 11 42 11 C42 13.97 42 16.94 42 20 C28.14 20 14.28 20 0 20 C0 13.4 0 6.8 0 0 Z " fill="#7BB7EE" transform="translate(23,53)"/>
<path d="M0 0 C7.59 0 15.18 0 23 0 C23 0.33 23 0.66 23 1 C17.06 1.33 11.12 1.66 5 2 C5 5.63 5 9.26 5 13 C18.365 13.495 18.365 13.495 32 14 C32 14.33 32 14.66 32 15 C21.44 15 10.88 15 0 15 C0 10.05 0 5.1 0 0 Z " fill="#C4E2EB" transform="translate(23,36)"/>
<path d="M0 0 C3.66624888 1.39666624 5.69298663 3.68585398 7.625 7 C8.78816793 11.07108776 8.91078305 13.19028135 7.5 17.1875 C4.48435489 21.71096767 1.90400261 23.68024935 -3.375 25 C-3.375 28.3 -3.375 31.6 -3.375 35 C-3.705 35 -4.035 35 -4.375 35 C-4.34019531 34.15695313 -4.30539063 33.31390625 -4.26953125 32.4453125 C-4.24246094 31.34960938 -4.21539062 30.25390625 -4.1875 29.125 C-4.15269531 28.03445312 -4.11789063 26.94390625 -4.08203125 25.8203125 C-4.22705078 24.42425781 -4.22705078 24.42425781 -4.375 23 C-5.365 22.34 -6.355 21.68 -7.375 21 C-6.1375 20.938125 -4.9 20.87625 -3.625 20.8125 C-0.36487821 20.39053388 0.51396555 20.09437929 3.125 17.875 C5.04301815 14.19879854 5.28312497 12.09499984 4.625 8 C2.21772465 4.83615239 0.64757696 3.29541112 -3.1875 2.1875 C-3.909375 2.125625 -4.63125 2.06375 -5.375 2 C-2.375 0 -2.375 0 0 0 Z " fill="#408EC4" transform="translate(71.375,40)"/>
<path d="M0 0 C0.99 0.33 1.98 0.66 3 1 C3 2.65 3 4.3 3 6 C4.65 6 6.3 6 8 6 C8.33 6.99 8.66 7.98 9 9 C7.02 9 5.04 9 3 9 C3 10.98 3 12.96 3 15 C2.01 15 1.02 15 0 15 C0 13.02 0 11.04 0 9 C-1.98 9 -3.96 9 -6 9 C-6 8.01 -6 7.02 -6 6 C-4.02 6 -2.04 6 0 6 C0 4.02 0 2.04 0 0 Z " fill="#4D95C9" transform="translate(66,44)"/>
<path d="M0 0 C1.65 0 3.3 0 5 0 C5 1.65 5 3.3 5 5 C6.32 5 7.64 5 9 5 C9 3.35 9 1.7 9 0 C10.32 0 11.64 0 13 0 C13 0.66 13 1.32 13 2 C13.66 2 14.32 2 15 2 C13.125 5.875 13.125 5.875 12 7 C7.77509324 7.44562911 4.15544948 7.67636067 0.4375 5.5 C-0.036875 5.005 -0.51125 4.51 -1 4 C-0.67 2.68 -0.34 1.36 0 0 Z " fill="#E8F5F3" transform="translate(60,54)"/>
<path d="M0 0 C0.99 0.33 1.98 0.66 3 1 C1 3 -1 5 -3 7 C-3.5936444 11.7102277 -3.63528961 15.02721279 -1 19.0625 C-0.34 19.701875 0.32 20.34125 1 21 C-3.875 20.125 -3.875 20.125 -5 19 C-5.14115161 16.32941149 -5.04247107 13.67567762 -5 11 C-5.66 11 -6.32 11 -7 11 C-6.58485103 6.1565954 -4.53791301 4.18412171 -1 1 C-0.67 0.67 -0.34 0.34 0 0 Z " fill="#4691C6" transform="translate(62,40)"/>
<path d="M0 0 C11.88 0 23.76 0 36 0 C36 1.98 36 3.96 36 6 C36.66 6.33 37.32 6.66 38 7 C36.68 7.33 35.36 7.66 34 8 C33 6 33 6 34 1 C22.78 1 11.56 1 0 1 C0 0.67 0 0.34 0 0 Z " fill="#2381C9" transform="translate(31,34)"/>
<path d="M0 0 C-0.66 1.32 -1.32 2.64 -2 4 C-2.33 3.67 -2.66 3.34 -3 3 C-3.33 3.66 -3.66 4.32 -4 5 C-6.64 5 -9.28 5 -12 5 C-12 3.68 -12 2.36 -12 1 C-7.58774263 -0.47075246 -4.51718381 -1.36884358 0 0 Z " fill="#C1DAE8" transform="translate(57,44)"/>
<path d="M0 0 C0 2.31 0 4.62 0 7 C-2 4 -2 4 -2 2 C-12.56 2 -23.12 2 -34 2 C-34 1.67 -34 1.34 -34 1 C-29.47934189 0.8571864 -24.9586712 0.71478006 -20.43798828 0.57275391 C-18.89957328 0.52436382 -17.3611618 0.47586174 -15.82275391 0.42724609 C-13.6136159 0.35745385 -11.40446562 0.28806219 -9.1953125 0.21875 C-8.50567413 0.19687622 -7.81603577 0.17500244 -7.10549927 0.15246582 C-2.22774341 0 -2.22774341 0 0 0 Z " fill="#2E89CA" transform="translate(57,51)"/>
<path d="M0 0 C2.64 0 5.28 0 8 0 C8 1.32 8 2.64 8 4 C5.36 4.33 2.72 4.66 0 5 C0 3.35 0 1.7 0 0 Z " fill="#70B1E5" transform="translate(50,28)"/>
<path d="M0 0 C2 1.5625 2 1.5625 4 4 C4.375 7.625 4.375 7.625 4 11 C3.34 11.66 2.68 12.32 2 13 C1.34 12.67 0.68 12.34 0 12 C0 11.34 0 10.68 0 10 C-1.32 9.67 -2.64 9.34 -4 9 C-2.02 9 -0.04 9 2 9 C1.34 6.03 0.68 3.06 0 0 Z " fill="#D4E9EE" transform="translate(73,44)"/>
<path d="M0 0 C6.27 0 12.54 0 19 0 C19 1.32 19 2.64 19 4 C17.02 4.66 15.04 5.32 13 6 C13 5.01 13 4.02 13 3 C13.99 2.67 14.98 2.34 16 2 C10.72 1.67 5.44 1.34 0 1 C0 0.67 0 0.34 0 0 Z " fill="#DDEEF2" transform="translate(46,36)"/>
<path d="M0 0 C2.64 0 5.28 0 8 0 C8 1.32 8 2.64 8 4 C5.36 4 2.72 4 0 4 C0 2.68 0 1.36 0 0 Z " fill="#68ABE3" transform="translate(45,67)"/>
<path d="M0 0 C6.0546875 -0.1953125 6.0546875 -0.1953125 8 0 C8.66 0.66 9.32 1.32 10 2 C8.02 2.66 6.04 3.32 4 4 C4 7.3 4 10.6 4 14 C3.67 14 3.34 14 3 14 C3.03480469 13.15695313 3.06960937 12.31390625 3.10546875 11.4453125 C3.13253906 10.34960938 3.15960938 9.25390625 3.1875 8.125 C3.22230469 7.03445312 3.25710937 5.94390625 3.29296875 4.8203125 C3.14794922 3.42425781 3.14794922 3.42425781 3 2 C2.01 1.34 1.02 0.68 0 0 Z " fill="#7BB2D5" transform="translate(64,61)"/>
<path d="M0 0 C0.66 0 1.32 0 2 0 C2 3.3 2 6.6 2 10 C1.01 10 0.02 10 -1 10 C-1.02689216 8.52093108 -1.04634621 7.04172517 -1.0625 5.5625 C-1.07410156 4.73878906 -1.08570312 3.91507813 -1.09765625 3.06640625 C-1 1 -1 1 0 0 Z " fill="#5093C7" transform="translate(26,38)"/>
<path d="M0 0 C0.99 0 1.98 0 3 0 C3 2.97 3 5.94 3 9 C2.01 9 1.02 9 0 9 C0 6.03 0 3.06 0 0 Z " fill="#398AD0" transform="translate(25,21)"/>
<path d="M0 0 C-0.33 1.32 -0.66 2.64 -1 4 C-5.75 5.125 -5.75 5.125 -8 4 C-8 3.01 -8 2.02 -8 1 C-5.23735711 0.40267181 -2.83967231 0 0 0 Z " fill="#66A7E1" transform="translate(63,67)"/>
<path d="M0 0 C0.99 0 1.98 0 3 0 C3 2.97 3 5.94 3 9 C2.01 9 1.02 9 0 9 C0 6.03 0 3.06 0 0 Z " fill="#3789D0" transform="translate(25,56)"/>
<path d="M0 0 C1.32 0 2.64 0 4 0 C4 0.66 4 1.32 4 2 C4.66 2 5.32 2 6 2 C5.34 3.32 4.68 4.64 4 6 C2.68 5.67 1.36 5.34 0 5 C0 3.35 0 1.7 0 0 Z " fill="#F2FBF7" transform="translate(69,54)"/>
<path d="M0 0 C0.99 0 1.98 0 3 0 C3.33 1.98 3.66 3.96 4 6 C2.35 6 0.7 6 -1 6 C-1.042721 4.33388095 -1.04063832 2.66617115 -1 1 C-0.67 0.67 -0.34 0.34 0 0 Z " fill="#F6FCF8" transform="translate(70,44)"/>
<path d="M0 0 C1.65 0 3.3 0 5 0 C5 0.66 5 1.32 5 2 C4.01 2 3.02 2 2 2 C2 4.64 2 7.28 2 10 C1.34 10 0.68 10 0 10 C0 6.7 0 3.4 0 0 Z " fill="#85C2F4" transform="translate(23,54)"/>
<path d="M0 0 C2 2 2 2 2 6 C3.98 6 5.96 6 8 6 C8 7.98 8 9.96 8 12 C7.67 12 7.34 12 7 12 C7 10.35 7 8.7 7 7 C4.69 7.66 2.38 8.32 0 9 C0 6.03 0 3.06 0 0 Z " fill="#D0E8EF" transform="translate(58,47)"/>
<path d="M0 0 C0.99 0.66 1.98 1.32 3 2 C1.1875 4.5 1.1875 4.5 -1 7 C-1.99 7 -2.98 7 -4 7 C-2.79618552 4.50638429 -1.54571278 2.31856917 0 0 Z " fill="#4B94CA" transform="translate(76,55)"/>
<path d="M0 0 C0.66 0.33 1.32 0.66 2 1 C2 2.65 2 4.3 2 6 C0.35 6 -1.3 6 -3 6 C-3.33 5.01 -3.66 4.02 -4 3 C-2.68 3 -1.36 3 0 3 C0 2.01 0 1.02 0 0 Z " fill="#F5FDFB" transform="translate(63,44)"/>
<path d="M0 0 C0.33 0 0.66 0 1 0 C1.33 3.3 1.66 6.6 2 10 C2.99 10.33 3.98 10.66 5 11 C5 11.66 5 12.32 5 13 C3.35 13.33 1.7 13.66 0 14 C0 9.38 0 4.76 0 0 Z " fill="#86C1F3" transform="translate(23,19)"/>
</svg>
