<?xml version="1.0" encoding="UTF-8"?>
<svg version="1.1" xmlns="http://www.w3.org/2000/svg" width="512" height="512">
<path d="M0 0 C0.87736313 0.34625427 1.75472626 0.69250854 2.65867615 1.04925537 C4.5604406 1.80077103 6.46084278 2.55574124 8.36001587 3.31378174 C12.46061775 4.95047519 16.56770295 6.57060924 20.67433167 8.19210815 C22.83324266 9.04483529 24.99179658 9.89846695 27.15000916 10.75296021 C37.65069225 14.90893273 48.17828772 18.994093 58.71124268 23.06744385 C63.85911597 25.05842036 69.00577916 27.05251843 74.15234375 29.046875 C75.6557431 29.62941544 75.6557431 29.62941544 77.18951416 30.22372437 C87.77329381 34.32644729 98.34683097 38.45529193 108.91912842 42.5874939 C119.38929341 46.67937727 129.86521591 50.75606156 140.34765625 54.81640625 C141.47769073 55.25417389 142.60772522 55.69194153 143.77200317 56.14297485 C149.33570322 58.2979912 154.89993517 60.45162206 160.46484375 62.60351562 C162.47787339 63.38278976 164.49089465 64.16208552 166.50390625 64.94140625 C167.43512802 65.30100937 168.36634979 65.66061249 169.32579041 66.03111267 C170.17597244 66.36043289 171.02615448 66.68975311 171.90209961 67.02905273 C172.64447372 67.3161058 173.38684784 67.60315887 174.15171814 67.89891052 C175.9765625 68.6328125 175.9765625 68.6328125 177.9765625 69.6328125 C177.9765625 193.3828125 177.9765625 317.1328125 177.9765625 444.6328125 C51.2565625 444.6328125 -75.4634375 444.6328125 -206.0234375 444.6328125 C-206.0234375 320.8828125 -206.0234375 197.1328125 -206.0234375 69.6328125 C-153.7521875 49.17884511 -153.7521875 49.17884511 -137.96044922 43.07128906 C-132.92205429 41.12250125 -127.88484638 39.17064943 -122.84765625 37.21875 C-121.84374847 36.82975525 -120.8398407 36.4407605 -119.80551147 36.03997803 C-109.22240594 31.93749634 -98.64973518 27.80841351 -88.07785034 23.67712402 C-70.99708424 17.00316113 -53.89931332 10.3732525 -36.79882812 3.75 C-35.78403381 3.35686615 -34.7692395 2.9637323 -33.72369385 2.5586853 C-31.82059578 1.82146783 -29.91740327 1.08449409 -28.01409912 0.34780884 C-27.16414368 0.01856415 -26.31418823 -0.31068054 -25.43847656 -0.64990234 C-24.65476685 -0.9491864 -23.87105713 -1.24847046 -23.06359863 -1.55682373 C-21.46395369 -2.19221193 -19.89858856 -2.91399477 -18.35058594 -3.66650391 C-12.10766113 -5.54619277 -5.74955262 -2.31709797 0 0 Z " fill="#C4C9E8" transform="translate(270.0234375,25.3671875)"/>
<path d="M0 0 C28.38 0 56.76 0 86 0 C86 32.01 86 64.02 86 97 C57.62 97 29.24 97 0 97 C0 64.99 0 32.98 0 0 Z " fill="#BE380F" transform="translate(213,373)"/>
<path d="M0 0 C21.12 0 42.24 0 64 0 C64 17.82 64 35.64 64 54 C42.88 54 21.76 54 0 54 C0 36.18 0 18.36 0 0 Z " fill="#1866C0" transform="translate(331,373)"/>
<path d="M0 0 C21.12 0 42.24 0 64 0 C64 17.82 64 35.64 64 54 C42.88 54 21.76 54 0 54 C0 36.18 0 18.36 0 0 Z " fill="#1866C0" transform="translate(117,373)"/>
<path d="M0 0 C21.12 0 42.24 0 64 0 C64 17.82 64 35.64 64 54 C42.88 54 21.76 54 0 54 C0 36.18 0 18.36 0 0 Z " fill="#1866C0" transform="translate(331,117)"/>
<path d="M0 0 C21.12 0 42.24 0 64 0 C64 17.82 64 35.64 64 54 C42.88 54 21.76 54 0 54 C0 36.18 0 18.36 0 0 Z " fill="#1766C0" transform="translate(224,117)"/>
<path d="M0 0 C21.12 0 42.24 0 64 0 C64 17.82 64 35.64 64 54 C42.88 54 21.76 54 0 54 C0 36.18 0 18.36 0 0 Z " fill="#1866C0" transform="translate(117,117)"/>
<path d="M0 0 C21.12 0 42.24 0 64 0 C64 17.49 64 34.98 64 53 C42.88 53 21.76 53 0 53 C0 35.51 0 18.02 0 0 Z " fill="#1565C0" transform="translate(331,288)"/>
<path d="M0 0 C21.12 0 42.24 0 64 0 C64 17.49 64 34.98 64 53 C42.88 53 21.76 53 0 53 C0 35.51 0 18.02 0 0 Z " fill="#1565C0" transform="translate(224,288)"/>
<path d="M0 0 C21.12 0 42.24 0 64 0 C64 17.49 64 34.98 64 53 C42.88 53 21.76 53 0 53 C0 35.51 0 18.02 0 0 Z " fill="#1565C0" transform="translate(117,288)"/>
<path d="M0 0 C21.12 0 42.24 0 64 0 C64 17.49 64 34.98 64 53 C42.88 53 21.76 53 0 53 C0 35.51 0 18.02 0 0 Z " fill="#1565C0" transform="translate(224,203)"/>
<path d="M0 0 C20.79 0 41.58 0 63 0 C63 17.49 63 34.98 63 53 C42.21 53 21.42 53 0 53 C0 35.51 0 18.02 0 0 Z " fill="#1565C0" transform="translate(331,203)"/>
<path d="M0 0 C20.79 0 41.58 0 63 0 C63 17.49 63 34.98 63 53 C42.21 53 21.42 53 0 53 C0 35.51 0 18.02 0 0 Z " fill="#1565C0" transform="translate(118,203)"/>
<path d="M0 0 C49.17 0 98.34 0 149 0 C149 7.26 149 14.52 149 22 C99.83 22 50.66 22 0 22 C0 14.74 0 7.48 0 0 Z " fill="#9FA8DA" transform="translate(299,448)"/>
<path d="M0 0 C49.17 0 98.34 0 149 0 C149 7.26 149 14.52 149 22 C99.83 22 50.66 22 0 22 C0 14.74 0 7.48 0 0 Z " fill="#9FA8DA" transform="translate(64,448)"/>
</svg>
