<?xml version="1.0"?>
<svg xmlns="http://www.w3.org/2000/svg" viewBox="0 0 16 16">
    <path style="line-height:normal;text-indent:0;text-align:start;text-decoration-line:none;text-decoration-style:solid;text-decoration-color:#000;text-transform:none;block-progression:tb;isolation:auto;mix-blend-mode:normal" d="M 8 0.96875 L 2 3.1503906 L 2 3.5 L 2 14 L 14 14 L 14 3.1503906 L 8 0.96875 z M 8 2.03125 L 13 3.8496094 L 13 13 L 9 13 L 9 11 L 7 11 L 7 13 L 3 13 L 3 3.8515625 L 8 2.03125 z M 4 5 L 4 6 L 6 6 L 6 5 L 4 5 z M 7 5 L 7 6 L 9 6 L 9 5 L 7 5 z M 10 5 L 10 6 L 12 6 L 12 5 L 10 5 z M 4 7 L 4 8 L 6 8 L 6 7 L 4 7 z M 7 7 L 7 8 L 9 8 L 9 7 L 7 7 z M 10 7 L 10 8 L 12 8 L 12 7 L 10 7 z M 4 9 L 4 10 L 6 10 L 6 9 L 4 9 z M 7 9 L 7 10 L 9 10 L 9 9 L 7 9 z M 10 9 L 10 10 L 12 10 L 12 9 L 10 9 z M 4 11 L 4 12 L 6 12 L 6 11 L 4 11 z M 10 11 L 10 12 L 12 12 L 12 11 L 10 11 z"/>
</svg>
